<?xml version="1.0" encoding="utf-8"?>
<!-- Generator: Adobe Illustrator 15.0.2, SVG Export Plug-In . SVG Version: 6.00 Build 0)  -->
<!DOCTYPE svg PUBLIC "-//W3C//DTD SVG 1.1//EN" "http://www.w3.org/Graphics/SVG/1.1/DTD/svg11.dtd">
<svg version="1.1" id="Layer_1" xmlns="http://www.w3.org/2000/svg" xmlns:xlink="http://www.w3.org/1999/xlink" x="0px" y="0px"
	 width="23.375px" height="16.125px" viewBox="0 0 23.375 16.125" enable-background="new 0 0 23.375 16.125" xml:space="preserve">
<rect x="-25.5" y="-3.794" fill="none" width="26" height="24.265"/>
<g enable-background="new    ">
	<path fill="#FFFFFF" d="M23.033,4.519L11.788,8.053c-0.041,0.01-0.07,0.01-0.101,0.01s-0.06,0-0.101-0.01L5.041,5.984
		C4.469,6.436,4.067,7.54,3.987,8.896C4.368,9.117,4.619,9.52,4.619,9.99c0,0.453-0.231,0.844-0.583,1.074l0.583,4.348
		c0.01,0.09-0.02,0.182-0.08,0.252c-0.061,0.07-0.151,0.109-0.241,0.109H2.37c-0.09,0-0.181-0.039-0.241-0.109
		c-0.06-0.07-0.09-0.162-0.08-0.252l0.583-4.348c-0.352-0.23-0.583-0.621-0.583-1.074c0-0.482,0.271-0.893,0.653-1.113
		c0.06-1.176,0.361-2.441,0.984-3.314L0.342,4.519c-0.13-0.051-0.221-0.171-0.221-0.312s0.09-0.261,0.221-0.312l11.245-3.534
		c0.041-0.01,0.07-0.01,0.101-0.01s0.06,0,0.101,0.01l11.245,3.534c0.131,0.051,0.221,0.171,0.221,0.312S23.164,4.468,23.033,4.519z
		 M18.113,10.633c0.08,1.416-2.881,2.57-6.426,2.57c-3.544,0-6.506-1.154-6.426-2.57L5.442,7.46l5.763,1.817
		c0.161,0.051,0.321,0.07,0.482,0.07c0.16,0,0.321-0.02,0.482-0.07l5.763-1.817L18.113,10.633z"/>
</g>
</svg>
